<svg xmlns="http://www.w3.org/2000/svg" xmlns:xlink="http://www.w3.org/1999/xlink" viewBox="0 0 554.17 129.76"><defs><style>.cls-1{fill:#e5005a;}.cls-1,.cls-10,.cls-11,.cls-12,.cls-13,.cls-14,.cls-15,.cls-3,.cls-5,.cls-7,.cls-9{stroke:#fff;stroke-miterlimit:10;stroke-width:3px;}.cls-2{fill:url(#Gradiente_sem_nome_97);}.cls-10,.cls-3{fill:#322b83;}.cls-4{fill:url(#Gradiente_sem_nome_430);}.cls-11,.cls-5{fill:#f49900;}.cls-6{fill:url(#Gradiente_sem_nome_450);}.cls-14,.cls-7{fill:#1a70b8;}.cls-8{fill:url(#Gradiente_sem_nome_438);}.cls-9{fill:#12100c;}.cls-10,.cls-11,.cls-13,.cls-14,.cls-15,.cls-9{fill-rule:evenodd;}.cls-12,.cls-13{fill:#e41313;}.cls-15{fill:#e50059;}</style><linearGradient id="Gradiente_sem_nome_97" x1="497.14" y1="14.19" x2="505.84" y2="12.5" gradientUnits="userSpaceOnUse"><stop offset="0" stop-color="#e5005a" stop-opacity="0.02"/><stop offset="1" stop-color="#4b0013"/></linearGradient><linearGradient id="Gradiente_sem_nome_430" x1="1033.23" y1="-1929.08" x2="1041.92" y2="-1930.77" gradientTransform="translate(-1389.01 -960.62) rotate(90)" gradientUnits="userSpaceOnUse"><stop offset="0" stop-color="#322b83"/><stop offset="0.22" stop-color="#2f277a"/><stop offset="0.58" stop-color="#271c62"/><stop offset="1" stop-color="#1a0c3d"/></linearGradient><linearGradient id="Gradiente_sem_nome_450" x1="-959.4" y1="-2461.3" x2="-950.73" y2="-2462.99" gradientTransform="translate(-477.82 -2345.68) rotate(180)" gradientUnits="userSpaceOnUse"><stop offset="0" stop-color="#f49900"/><stop offset="1" stop-color="#674300"/></linearGradient><linearGradient id="Gradiente_sem_nome_438" x1="-1443.24" y1="-472.94" x2="-1434.45" y2="-474.65" gradientTransform="translate(911.2 -1385.06) rotate(-90)" gradientUnits="userSpaceOnUse"><stop offset="0" stop-color="#1a70b8"/><stop offset="0.17" stop-color="#196aaf"/><stop offset="0.44" stop-color="#145b97"/><stop offset="0.78" stop-color="#0e4370"/><stop offset="1" stop-color="#093153"/></linearGradient></defs><g id="Camada_2" data-name="Camada 2"><g id="Camada_1-2" data-name="Camada 1"><path class="cls-1" d="M503.78,49.51h24.88V20.15c0-9.92-8.45-18.58-19.56-18.65l-35.49.07V25.5h30.21Z"/><path class="cls-2" d="M499,23.88,495.28,3.1h7.3C506.19,4.84,505,15,505.43,24"/><path class="cls-3" d="M504.66,79.38v24.88H534c9.92,0,18.58-8.46,18.65-19.57L552.6,49.2H528.67V79.41Z"/><path class="cls-4" d="M530.35,74.5,551,70.85v7.29c-1.74,3.62-11.56,2-20.55,2.48"/><path class="cls-5" d="M474.48,80.25H449.6v29.36c0,9.92,8.46,18.59,19.57,18.65l35.49-.06V104.26H474.45Z"/><path class="cls-6" d="M479.18,105.88l4.56,20.83h-7.58c-3.53-1.69-2.77-13.57-3.14-20.94"/><path class="cls-7" d="M473.61,50.39V25.51H444.25c-9.92,0-18.59,8.46-18.66,19.56l.07,35.49H449.6V50.35Z"/><path class="cls-8" d="M447.91,55.12l-20.7,5.21V53c1.74-3.61,11.7-3.68,20.7-4.15"/><path class="cls-9" d="M6,30.82a31.64,31.64,0,0,1,10.18-9.7,44.93,44.93,0,0,1,13.1-5.21,59.16,59.16,0,0,1,13-1.58c5.86,0,12.09.69,17.57,3a33,33,0,0,1,11.71,8,31.32,31.32,0,0,1,6.77,11.52l.16.49a1.7,1.7,0,0,1-.1,1.38,1.65,1.65,0,0,1-1,.89l-16.64,5a1.54,1.54,0,0,1-2-1C57.13,33.68,51.18,28.74,39,29.34,30.14,29.77,20.76,35.9,21.38,43c1.09,12.49,25.47,13.34,35.33,16.4,13.39,4.15,25.6,11.62,24.52,29-1.81,29.22-48.7,31.66-67,19.49a27.67,27.67,0,0,1-12.38-19,1.78,1.78,0,0,1,1.17-2l12.79-4.15c1.62-.53,4.82-2.22,5.8-.44.36.63.49,3,.77,4C24,92.25,29,95.3,35,96.5c18.65,3.74,32.07-11.56,18.38-19-9.31-5.05-24-3.79-36.74-9.16C1.6,62-2.77,43.86,6,30.82"/><path class="cls-10" d="M155.36,75.34A61.64,61.64,0,0,1,153.7,89.8,35.65,35.65,0,0,1,148,102.39a28.52,28.52,0,0,1-10.66,8.9c-5,2.5-10.82,3.28-16.31,3.28-9.58,0-19.94-2.11-26.68-10.17s-8.45-19.24-8.45-29.67q0-14,.7-28T88,18.6a1.79,1.79,0,0,1,.56-1.24,1.48,1.48,0,0,1,1.21-.42l15.11,1.67a1.56,1.56,0,0,1,1.11.64,1.79,1.79,0,0,1,.36,1.31q-.73,7.55-1.32,15.12-.61,7.78-1.19,15.59c-.35,4.82-.64,9.65-.83,14.48-.16,4-.28,7.92-.28,11.87a43.62,43.62,0,0,0,.92,9.69,13.85,13.85,0,0,0,2.76,5.93,10.8,10.8,0,0,0,4.93,3.17c2.59.84,7.85,1.07,10.54,1.07,4.2,0,11.28-.89,14.15-4.56,3.07-3.92,3.66-10.36,3.66-15.3q0-13.92-.7-27.84t-1.81-27.73a1.82,1.82,0,0,1,.39-1.32,1.56,1.56,0,0,1,1.15-.6l14.49-.91a1.46,1.46,0,0,1,1.2.48,1.81,1.81,0,0,1,.5,1.28c0,3.39,0,6.79.07,10.18.06,3.86.1,7.72.14,11.58q.09,7.15.14,14.31c.06,6.1.07,12.19.07,18.29"/><path class="cls-11" d="M177,97.28l30.57.75a1.41,1.41,0,0,1,1.13.62,1.86,1.86,0,0,1,.36,1.38l-1.51,13a1.62,1.62,0,0,1-1.6,1.53l-41.88-1.82a1.68,1.68,0,0,1-1.49-1.77V17.34a1.67,1.67,0,0,1,1.55-1.77h16a1.45,1.45,0,0,1,1.13.55,1.9,1.9,0,0,1,.42,1.31Z"/><path class="cls-12" d="M221,16.83a12.13,12.13,0,0,1,7.38-2.2,8.25,8.25,0,0,1,7,3.57,8.43,8.43,0,0,1,1.57,3.85,10.85,10.85,0,0,1-.28,4.37,15.61,15.61,0,0,1-1.94,4.34,13.87,13.87,0,0,1-3.61,3.78A13.22,13.22,0,0,1,228,36.19a10.73,10.73,0,0,1-3.93.71,11.1,11.1,0,0,1-4.11-.86,8.74,8.74,0,0,1-3.68-3,7.15,7.15,0,0,1-1.44-4.33,12.88,12.88,0,0,1,.88-4.61A16.92,16.92,0,0,1,218,19.87a15.43,15.43,0,0,1,3-3"/><path class="cls-13" d="M217.91,112.77,217,45.7a1.67,1.67,0,0,1,1.43-1.8l14.71-.78a1.36,1.36,0,0,1,1.11.5,1.84,1.84,0,0,1,.45,1.29l-.77,67.23a1.66,1.66,0,0,1-1.44,1.74l-13,.63a1.36,1.36,0,0,1-1.1-.49,1.84,1.84,0,0,1-.46-1.25"/><path class="cls-14" d="M262.65,51l4.88,62.76a1.58,1.58,0,0,1-1.61,1.69l-15-.62a1.67,1.67,0,0,1-1.19-.57,1.86,1.86,0,0,1-.52-1.28l-1.65-83a1.58,1.58,0,0,1,1.5-1.69l20.48-.61a1.75,1.75,0,0,1,1.57.95l31.54,59-5.23-67.9a1.73,1.73,0,0,1,.47-1.3,1.47,1.47,0,0,1,1.24-.44l18,1.86a1.9,1.9,0,0,1,1.62,1.92l-1.42,88.69a1.6,1.6,0,0,1-1.43,1.62L302,113.13a1.73,1.73,0,0,1-1.61-.88Z"/><path class="cls-15" d="M357.94,75.67l-8.32,8-.14,26.21a1.72,1.72,0,0,1-1.51,1.75l-13.12,1.21a1.5,1.5,0,0,1-1.23-.44,1.74,1.74,0,0,1-.56-1.26l-2.85-92.35A1.72,1.72,0,0,1,331.8,17l16.84-.61a1.55,1.55,0,0,1,1.2.51,1.81,1.81,0,0,1,.5,1.29l-.5,42.35L385.1,15.07a1.56,1.56,0,0,1,1.2-.64,1.54,1.54,0,0,1,1.24.54L399,27.71a1.87,1.87,0,0,1,0,2.48L369.05,62.54l31.69,39.86a1.87,1.87,0,0,1-.14,2.45l-9.42,9.25a1.51,1.51,0,0,1-1.21.46,1.54,1.54,0,0,1-1.14-.6Z"/></g></g></svg>