<?xml version="1.0" encoding="UTF-8"?>
<!DOCTYPE svg PUBLIC "-//W3C//DTD SVG 1.1//EN" "http://www.w3.org/Graphics/SVG/1.1/DTD/svg11.dtd">
<!-- Creator: CorelDRAW -->
<svg xmlns="http://www.w3.org/2000/svg" xml:space="preserve" width="472px" height="472px" version="1.1" style="shape-rendering:geometricPrecision; text-rendering:geometricPrecision; image-rendering:optimizeQuality; fill-rule:evenodd; clip-rule:evenodd"
viewBox="0 0 197.85 197.85"
 xmlns:xlink="http://www.w3.org/1999/xlink"
 xmlns:xodm="http://www.corel.com/coreldraw/odm/2003">
 <defs>
  <style type="text/css">
   <![CDATA[
    .fil0 {fill:#4C4B4D;fill-rule:nonzero}
    .fil1 {fill:white;fill-rule:nonzero}
   ]]>
  </style>
 </defs>
 <g id="Camada_x0020_1">
  <metadata id="CorelCorpID_0Corel-Layer"/>
  <path id="back" class="fil0" d="M197.85 98.92c0,-54.63 -44.29,-98.92 -98.93,-98.92 -54.63,0 -98.92,44.29 -98.92,98.92 0,54.64 44.29,98.93 98.92,98.93 54.64,0 98.93,-44.29 98.93,-98.93z"/>
  <path id="path1009" class="fil1" d="M43.35 46.65l43.12 57.66 -43.39 46.89 9.76 0 38 -41.05 30.7 41.05 33.23 0 -45.55 -60.91 40.4 -43.64 -9.77 0 -34.99 37.81 -28.27 -37.81 -33.24 0zm14.36 7.2l15.27 0 67.43 90.15 -15.27 0 -67.43 -90.15z"/>
 </g>
</svg>
