<?xml version="1.0" encoding="UTF-8"?>
<!DOCTYPE svg PUBLIC "-//W3C//DTD SVG 1.1//EN" "http://www.w3.org/Graphics/SVG/1.1/DTD/svg11.dtd">
<!-- Creator: CorelDRAW -->
<svg xmlns="http://www.w3.org/2000/svg" xml:space="preserve" width="472px" height="472px" version="1.1" style="shape-rendering:geometricPrecision; text-rendering:geometricPrecision; image-rendering:optimizeQuality; fill-rule:evenodd; clip-rule:evenodd"
viewBox="0 0 197.85 197.85"
 xmlns:xlink="http://www.w3.org/1999/xlink"
 xmlns:xodm="http://www.corel.com/coreldraw/odm/2003">
 <defs>
  <style type="text/css">
   <![CDATA[
    .fil0 {fill:#4C4B4D;fill-rule:nonzero}
    .fil1 {fill:white;fill-rule:nonzero}
   ]]>
  </style>
 </defs>
 <g id="Camada_x0020_1">
  <metadata id="CorelCorpID_0Corel-Layer"/>
  <path id="back" class="fil0" d="M197.85 98.92c0,-54.63 -44.29,-98.92 -98.93,-98.92 -54.63,0 -98.92,44.29 -98.92,98.92 0,54.64 44.29,98.93 98.92,98.93 54.64,0 98.93,-44.29 98.93,-98.93z"/>
  <path class="fil1" d="M151.46 57.2c0.96,-6.2 -4.93,-11.09 -10.44,-8.67l-109.7 48.16c-3.95,1.74 -3.66,7.72 0.44,9.02l22.62 7.21c4.32,1.37 9,0.66 12.77,-1.94l51 -35.24c1.54,-1.06 3.21,1.13 1.9,2.48l-36.71 37.85c-3.57,3.67 -2.86,9.9 1.43,12.58l41.1 25.78c4.61,2.89 10.54,-0.01 11.4,-5.59l14.19 -91.64 0 0z"/>
 </g>
</svg>
