<?xml version="1.0" encoding="UTF-8"?>
<!DOCTYPE svg PUBLIC "-//W3C//DTD SVG 1.1//EN" "http://www.w3.org/Graphics/SVG/1.1/DTD/svg11.dtd">
<!-- Creator: CorelDRAW -->
<svg xmlns="http://www.w3.org/2000/svg" xml:space="preserve" width="472px" height="472px" version="1.1" style="shape-rendering:geometricPrecision; text-rendering:geometricPrecision; image-rendering:optimizeQuality; fill-rule:evenodd; clip-rule:evenodd"
viewBox="0 0 197.85 197.85"
 xmlns:xlink="http://www.w3.org/1999/xlink"
 xmlns:xodm="http://www.corel.com/coreldraw/odm/2003">
 <defs>
  <style type="text/css">
   <![CDATA[
    .fil2 {fill:white}
    .fil0 {fill:#4C4B4D;fill-rule:nonzero}
    .fil1 {fill:white;fill-rule:nonzero}
   ]]>
  </style>
 </defs>
 <g id="Camada_x0020_1">
  <metadata id="CorelCorpID_0Corel-Layer"/>
  <path id="back" class="fil0" d="M197.85 98.92c0,-54.63 -44.29,-98.92 -98.93,-98.92 -54.63,0 -98.92,44.29 -98.92,98.92 0,54.64 44.29,98.93 98.92,98.93 54.64,0 98.93,-44.29 98.93,-98.93z"/>
  <g id="whatsApp-2" data-name="whatsApp">
   <path class="fil1" d="M38.56 159.58l8.53 -31.16c-5.25,-9.1 -8.03,-19.45 -8.03,-29.97 0,-0.02 0,-0.05 0,-0.08 0,-33.14 26.98,-60.1 60.11,-60.1 33.2,0 60.12,26.92 60.12,60.12 0,0.01 0,0.04 0,0.04 0,33.14 -26.98,60.11 -60.11,60.11l-0.03 0c-10.03,0 -19.91,-2.51 -28.72,-7.31l-31.87 8.35zm33.34 -19.24l1.83 1.08c7.69,4.56 16.48,6.97 25.42,6.97 0,0 0.01,0 0.01,0l0.02 0c27.53,0 49.95,-22.42 49.96,-49.97 0,0 0,0 0,0 0,-27.59 -22.37,-49.96 -49.96,-49.96 -27.59,0 -49.96,22.37 -49.96,49.96 0,9.39 2.65,18.61 7.63,26.55l1.19 1.89 -5.05 18.44 18.91 -4.96z"/>
   <path class="fil2" d="M129.46 112.72c-0.37,-0.62 -1.38,-1 -2.88,-1.75 -1.5,-0.76 -8.88,-4.39 -10.26,-4.88 -1.38,-0.5 -2.38,-0.76 -3.37,0.75 -0.99,1.51 -3.88,4.89 -4.75,5.89 -0.88,1.01 -1.76,1.13 -3.26,0.38 -1.5,-0.75 -6.34,-2.34 -12.07,-7.46 -4.47,-3.98 -7.49,-8.9 -8.36,-10.4 -0.87,-1.5 -0.09,-2.32 0.66,-3.07 0.68,-0.67 1.5,-1.75 2.25,-2.63 0.62,-0.76 1.13,-1.62 1.5,-2.52 0.18,-0.38 0.28,-0.79 0.28,-1.2 0,-0.51 -0.14,-1 -0.4,-1.44 -0.38,-0.75 -3.37,-8.14 -4.63,-11.15 -1.22,-2.94 -2.46,-2.52 -3.37,-2.58 -0.91,-0.05 -1.88,-0.05 -2.88,-0.05 -1.54,0.04 -2.99,0.72 -4.01,1.88 -1.37,1.5 -5.25,5.14 -5.25,12.53 0,7.39 5.38,14.54 6.13,15.54 0.76,1 10.59,16.17 25.66,22.68 2.8,1.2 5.67,2.26 8.56,3.16 1.94,0.59 3.97,0.89 5.99,0.89 1.16,0 2.33,-0.1 3.47,-0.29 2.89,-0.42 8.89,-3.64 10.14,-7.16 1.25,-3.53 1.22,-6.49 0.85,-7.12z"/>
  </g>
 </g>
</svg>
