<?xml version="1.0" encoding="UTF-8"?>
<!DOCTYPE svg PUBLIC "-//W3C//DTD SVG 1.1//EN" "http://www.w3.org/Graphics/SVG/1.1/DTD/svg11.dtd">
<!-- Creator: CorelDRAW -->
<svg xmlns="http://www.w3.org/2000/svg" xml:space="preserve" width="1475px" height="1475px" version="1.1" style="shape-rendering:geometricPrecision; text-rendering:geometricPrecision; image-rendering:optimizeQuality; fill-rule:evenodd; clip-rule:evenodd"
viewBox="0 0 1475 1475"
 xmlns:xlink="http://www.w3.org/1999/xlink"
 xmlns:xodm="http://www.corel.com/coreldraw/odm/2003">
 <defs>
  <style type="text/css">
   <![CDATA[
    .str0 {stroke:white;stroke-width:2.36;stroke-miterlimit:22.9256}
    .fil0 {fill:white}
    .fil1 {fill:#4C4B4D;fill-rule:nonzero}
   ]]>
  </style>
 </defs>
 <g id="Camada_x0020_1">
  <metadata id="CorelCorpID_0Corel-Layer"/>
  <ellipse class="fil0 str0" cx="738.04" cy="753.18" rx="520.94" ry="535.79"/>
  <path class="fil1" d="M737.27 1475c402.73,0 737.73,-335 737.73,-737.73 0,-403.18 -335.45,-737.27 -738.18,-737.27 -403.64,0 -736.82,334.09 -736.82,737.27 0,402.73 334.09,737.73 737.27,737.73zm321.37 -1073.64c89.54,88.64 81.36,198.64 -21.82,301.37l-124.55 125c10.46,-34.55 9.55,-75 -1.82,-102.73l72.73 -72.73c70.91,-69.54 79.09,-142.72 22.73,-198.18 -55.91,-55 -129.09,-46.36 -198.18,23.18l-103.64 101.82c-71.36,72.27 -80.91,145.91 -24.54,200.91 16.81,17.27 41.36,28.18 73.18,34.09 -10.91,23.18 -33.18,50 -54.09,64.55 -21.82,-3.64 -49.55,-21.37 -72.73,-45 -89.55,-89.09 -80,-200.46 25,-305.91l105.45 -104.55c103.19,-103.63 213.19,-110.91 302.28,-21.82l0 0 0 0zm-668.19 668.19c-89.54,-89.09 -81.81,-199.1 22.28,-301.82l124.54 -125c-10.91,34.54 -10,75.45 1.37,102.73l-73.19 73.18c-70.9,68.63 -78.63,142.27 -22.27,197.73 55.91,55 129.55,46.36 198.18,-22.73l103.19 -102.27c71.81,-72.28 81.36,-145.91 24.54,-200.91 -16.36,-17.28 -40.91,-28.19 -72.73,-34.09 10.91,-23.19 33.19,-49.55 54.09,-64.1 21.82,3.64 49.1,20.91 73.19,44.55 88.63,89.09 79.54,199.54 -25.46,305.45l-105.45 105.46c-103.64,103.18 -213.19,110.45 -302.28,21.82l0 0 0 0z"/>
 </g>
</svg>
